<?xml version="1.0" encoding="UTF-8"?>
<svg id="Layer_1" data-name="Layer 1" xmlns="http://www.w3.org/2000/svg" viewBox="0 0 520 518.98">
  <defs>
    <style>
      .cls-1 {
        letter-spacing: 0em;
      }

      .cls-2 {
        letter-spacing: -.05em;
      }

      .cls-2, .cls-3, .cls-4, .cls-5 {
        font-family: Inter-Black, Inter;
        font-weight: 800;
      }

      .cls-6, .cls-7, .cls-8, .cls-9, .cls-10 {
        fill: none;
        stroke-miterlimit: 10;
        stroke-width: 3px;
      }

      .cls-6, .cls-8, .cls-9 {
        stroke-linecap: round;
      }

      .cls-6, .cls-10 {
        stroke: #24292f;
      }

      .cls-7, .cls-8, .cls-9 {
        stroke: #6639ba;
      }

      .cls-9 {
        fill-rule: evenodd;
      }

      .cls-3 {
        letter-spacing: -.03em;
      }

      .cls-11, .cls-12 {
        font-family: Inter-Bold, Inter;
        font-weight: 700;
      }

      .cls-11, .cls-13 {
        fill: #cf222e;
        font-size: 13px;
      }

      .cls-14 {
        letter-spacing: 0em;
      }

      .cls-15 {
        font-family: Inter-MediumItalic, Inter;
        font-style: italic;
        font-weight: 500;
      }

      .cls-12 {
        fill: #0550ae;
        font-size: 21px;
      }

      .cls-5 {
        letter-spacing: -.09em;
      }

      .cls-16 {
        letter-spacing: .03em;
      }

      .cls-17 {
        letter-spacing: .05em;
      }
    </style>
  </defs>
  <line class="cls-6" x1="129.72" y1="355.69" x2="390.97" y2="355.69"/>
  <line class="cls-6" x1="449.3" y1="355.69" x2="481.93" y2="355.69"/>
  <line class="cls-10" x1="38.07" y1="32.71" x2="38.07" y2="483.9"/>
  <line class="cls-10" x1="481.93" y1="32.71" x2="481.93" y2="483.9"/>
  <line class="cls-6" x1="130" y1="161.04" x2="390.42" y2="161.04"/>
  <line class="cls-6" x1="38.64" y1="161.04" x2="71.14" y2="161.04"/>
  <line class="cls-6" x1="449.35" y1="161.04" x2="481.85" y2="161.04"/>
  <line class="cls-6" x1="449.03" y1="258.5" x2="481.53" y2="258.5"/>
  <line class="cls-6" x1="260.62" y1="258.5" x2="390.62" y2="258.5"/>
  <line class="cls-6" x1="129.72" y1="258.5" x2="201.79" y2="258.5"/>
  <line class="cls-6" x1="38.32" y1="355.69" x2="70.82" y2="355.69"/>
  <line class="cls-6" x1="38.07" y1="258.5" x2="70.57" y2="258.5"/>
  <g>
    <line class="cls-7" x1="71.21" y1="161.04" x2="90.71" y2="161.04"/>
    <line class="cls-7" x1="110.54" y1="161.04" x2="130.04" y2="161.04"/>
    <line class="cls-7" x1="91.04" y1="177.29" x2="91.04" y2="144.79"/>
    <line class="cls-7" x1="110.54" y1="177.29" x2="110.54" y2="144.79"/>
  </g>
  <g>
    <line class="cls-7" x1="70.89" y1="258.5" x2="90.39" y2="258.5"/>
    <line class="cls-7" x1="110.22" y1="258.5" x2="129.72" y2="258.5"/>
    <line class="cls-7" x1="90.72" y1="274.75" x2="90.72" y2="242.25"/>
    <line class="cls-7" x1="110.22" y1="274.75" x2="110.22" y2="242.25"/>
  </g>
  <g>
    <line class="cls-7" x1="70.89" y1="355.69" x2="90.39" y2="355.69"/>
    <line class="cls-7" x1="110.22" y1="355.69" x2="129.72" y2="355.69"/>
    <line class="cls-7" x1="90.72" y1="371.94" x2="90.72" y2="339.44"/>
    <line class="cls-7" x1="110.22" y1="371.94" x2="110.22" y2="339.44"/>
  </g>
  <text class="cls-13" transform="translate(83.51 137.01)"><tspan class="cls-15" x="0" y="0">%</tspan><tspan class="cls-4" x="10.77" y="0">I</tspan><tspan class="cls-2" x="14.55" y="0">O</tspan><tspan class="cls-5" x="24.3" y="0">.</tspan><tspan class="cls-4" x="27.14" y="0">1</tspan></text>
  <text class="cls-11" transform="translate(61.73 235.35)"><tspan x="0" y="0">sta</tspan><tspan class="cls-16" x="19.9" y="0">r</tspan><tspan x="25.57" y="0">t_but</tspan><tspan class="cls-1" x="58.2" y="0">t</tspan><tspan class="cls-14" x="63.18" y="0">on</tspan></text>
  <text class="cls-11" transform="translate(62.8 331.87)"><tspan x="0" y="0">s</tspan><tspan class="cls-1" x="7.3" y="0">t</tspan><tspan x="12.28" y="0">op_but</tspan><tspan class="cls-1" x="56.07" y="0">t</tspan><tspan x="61.04" y="0">on</tspan></text>
  <text class="cls-11" transform="translate(372.55 235.35)"><tspan x="0" y="0">mo</tspan><tspan class="cls-1" x="19.83" y="0">t</tspan><tspan x="24.81" y="0">or</tspan><tspan class="cls-17" x="38.1" y="0">_</tspan><tspan x="44.89" y="0">running</tspan></text>
  <g>
    <line class="cls-8" x1="390.78" y1="161.04" x2="407.03" y2="161.04"/>
    <line class="cls-8" x1="433.03" y1="161.04" x2="449.28" y2="161.04"/>
    <path class="cls-9" d="M411.37,177.29c-2.77-4.78-4.35-10.33-4.35-16.25s1.58-11.47,4.35-16.25"/>
    <path class="cls-9" d="M428.68,144.79c2.77,4.78,4.35,10.33,4.35,16.25s-1.58,11.47-4.35,16.25"/>
  </g>
  <g>
    <line class="cls-8" x1="390.45" y1="258.5" x2="406.7" y2="258.5"/>
    <line class="cls-8" x1="432.7" y1="258.5" x2="448.95" y2="258.5"/>
    <path class="cls-9" d="M411.05,274.75c-2.77-4.78-4.35-10.33-4.35-16.25s1.58-11.47,4.35-16.25"/>
    <path class="cls-9" d="M428.36,242.25c2.77,4.78,4.35,10.33,4.35,16.25s-1.58,11.47-4.35,16.25"/>
  </g>
  <text class="cls-11" transform="translate(380.4 137.07)"><tspan x="0" y="0">sta</tspan><tspan class="cls-16" x="19.9" y="0">r</tspan><tspan x="25.57" y="0">t_but</tspan><tspan class="cls-1" x="58.2" y="0">t</tspan><tspan class="cls-14" x="63.18" y="0">on</tspan></text>
  <line class="cls-6" x1="130" y1="63.54" x2="390.42" y2="63.54"/>
  <line class="cls-6" x1="38.64" y1="63.54" x2="71.14" y2="63.54"/>
  <line class="cls-6" x1="449.35" y1="63.54" x2="481.85" y2="63.54"/>
  <g>
    <line class="cls-7" x1="71.21" y1="63.54" x2="90.71" y2="63.54"/>
    <line class="cls-7" x1="110.54" y1="63.54" x2="130.04" y2="63.54"/>
    <line class="cls-7" x1="91.04" y1="79.79" x2="91.04" y2="47.29"/>
    <line class="cls-7" x1="110.54" y1="79.79" x2="110.54" y2="47.29"/>
  </g>
  <text class="cls-13" transform="translate(81.66 39.51)"><tspan class="cls-15" x="0" y="0">%</tspan><tspan class="cls-4" x="10.77" y="0">I</tspan><tspan class="cls-2" x="14.55" y="0">O</tspan><tspan class="cls-3" x="24.3" y="0">.</tspan><tspan class="cls-4" x="27.94" y="0">0</tspan></text>
  <g>
    <line class="cls-8" x1="390.78" y1="63.54" x2="407.03" y2="63.54"/>
    <line class="cls-8" x1="433.03" y1="63.54" x2="449.28" y2="63.54"/>
    <path class="cls-9" d="M411.37,79.79c-2.77-4.78-4.35-10.33-4.35-16.25s1.58-11.47,4.35-16.25"/>
    <path class="cls-9" d="M428.68,47.29c2.77,4.78,4.35,10.33,4.35,16.25s-1.58,11.47-4.35,16.25"/>
  </g>
  <text class="cls-11" transform="translate(380.4 39.57)"><tspan x="0" y="0">sta</tspan><tspan class="cls-16" x="19.9" y="0">r</tspan><tspan x="25.57" y="0">t_but</tspan><tspan class="cls-1" x="58.2" y="0">t</tspan><tspan class="cls-14" x="63.18" y="0">on</tspan></text>
  <line class="cls-6" x1="130.56" y1="453.07" x2="390.98" y2="453.07"/>
  <line class="cls-6" x1="38.32" y1="453.07" x2="70.82" y2="453.07"/>
  <line class="cls-6" x1="449.28" y1="453.05" x2="481.78" y2="453.05"/>
  <g>
    <line class="cls-7" x1="71.14" y1="453.07" x2="90.64" y2="453.07"/>
    <line class="cls-7" x1="110.46" y1="453.07" x2="129.96" y2="453.07"/>
    <line class="cls-7" x1="90.96" y1="469.32" x2="90.96" y2="436.82"/>
    <line class="cls-7" x1="110.46" y1="469.32" x2="110.46" y2="436.82"/>
  </g>
  <text class="cls-11" transform="translate(53.15 430.46)"><tspan x="0" y="0">mo</tspan><tspan class="cls-1" x="19.83" y="0">t</tspan><tspan x="24.81" y="0">or</tspan><tspan class="cls-17" x="38.1" y="0">_</tspan><tspan x="44.89" y="0">running</tspan></text>
  <g>
    <line class="cls-8" x1="390.7" y1="453.05" x2="406.95" y2="453.05"/>
    <line class="cls-8" x1="432.95" y1="453.05" x2="449.2" y2="453.05"/>
    <path class="cls-9" d="M411.3,469.3c-2.77-4.78-4.35-10.33-4.35-16.25s1.58-11.47,4.35-16.25"/>
    <path class="cls-9" d="M428.6,436.8c2.77,4.78,4.35,10.33,4.35,16.25s-1.58,11.47-4.35,16.25"/>
  </g>
  <text class="cls-13" transform="translate(399.8 429.06)"><tspan class="cls-15" x="0" y="0">%</tspan><tspan class="cls-4" x="10.77" y="0">Q</tspan><tspan class="cls-2" x="21.12" y="0">O</tspan><tspan class="cls-5" x="30.88" y="0">.</tspan><tspan class="cls-4" x="33.72" y="0">1</tspan></text>
  <text class="cls-11" transform="translate(192.82 235.35)"><tspan x="0" y="0">s</tspan><tspan class="cls-1" x="7.3" y="0">t</tspan><tspan x="12.28" y="0">op_but</tspan><tspan class="cls-1" x="56.07" y="0">t</tspan><tspan x="61.04" y="0">on</tspan></text>
  <text class="cls-12" transform="translate(412.83 265.32)"><tspan x="0" y="0">S</tspan></text>
  <text class="cls-11" transform="translate(372.9 332.55)"><tspan x="0" y="0">mo</tspan><tspan class="cls-1" x="19.83" y="0">t</tspan><tspan x="24.81" y="0">or</tspan><tspan class="cls-17" x="38.1" y="0">_</tspan><tspan x="44.89" y="0">running</tspan></text>
  <g>
    <line class="cls-8" x1="390.8" y1="355.69" x2="407.05" y2="355.69"/>
    <line class="cls-8" x1="433.05" y1="355.69" x2="449.3" y2="355.69"/>
    <path class="cls-9" d="M411.4,371.94c-2.77-4.78-4.35-10.33-4.35-16.25s1.58-11.47,4.35-16.25"/>
    <path class="cls-9" d="M428.7,339.44c2.77,4.78,4.35,10.33,4.35,16.25s-1.58,11.47-4.35,16.25"/>
  </g>
  <text class="cls-12" transform="translate(412.87 362.81)"><tspan x="0" y="0">R</tspan></text>
  <g>
    <g>
      <line class="cls-7" x1="201.79" y1="258.5" x2="221.29" y2="258.5"/>
      <line class="cls-7" x1="241.12" y1="258.5" x2="260.62" y2="258.5"/>
      <line class="cls-7" x1="221.62" y1="274.75" x2="221.62" y2="242.25"/>
      <line class="cls-7" x1="241.12" y1="274.75" x2="241.12" y2="242.25"/>
    </g>
    <line class="cls-7" x1="237.12" y1="273.75" x2="225.62" y2="243.25"/>
  </g>
</svg>
